<svg xmlns="http://www.w3.org/2000/svg" xmlns:xlink="http://www.w3.org/1999/xlink" width="500" zoomAndPan="magnify" viewBox="0 0 375 374.999991" height="500" preserveAspectRatio="xMidYMid meet" version="1.0"><defs><g/><clipPath id="327d72e78d"><path d="M 98 147 L 164 147 L 164 229.371094 L 98 229.371094 Z M 98 147 " clip-rule="nonzero"/></clipPath><clipPath id="9e5da5e095"><path d="M 200 147 L 266 147 L 266 229.371094 L 200 229.371094 Z M 200 147 " clip-rule="nonzero"/></clipPath></defs><rect x="-37.5" width="450" fill="#ffffff" y="-37.499999" height="449.999989" fill-opacity="1"/><rect x="-37.5" width="450" fill="#f9f5f0" y="-37.499999" height="449.999989" fill-opacity="1"/><g clip-path="url(#327d72e78d)"><path fill="#ff9f7c" d="M 102.871094 225.628906 C 102.414062 225.507812 104.582031 219.191406 104.722656 218.773438 C 106.21875 214.414062 112.035156 203.609375 111.367188 199.144531 C 110.945312 196.332031 107.515625 193.757812 105.890625 191.785156 C 102.90625 188.164062 99.925781 184.050781 99.230469 179.21875 C 95.808594 155.429688 113.878906 145.375 135.820312 147.652344 C 146.328125 148.742188 158.601562 165.285156 158.75 167.859375 C 158.917969 170.789062 157.015625 172.09375 157.46875 175.066406 C 158.015625 178.648438 162.78125 181.085938 163.621094 185.132812 C 164.363281 188.699219 160.371094 186.171875 160.125 188.863281 C 160.046875 189.6875 161.347656 190.820312 161.628906 191.5 C 162.339844 193.214844 159.609375 192.277344 160.757812 193.535156 C 160.894531 193.683594 161.453125 194.023438 161.433594 194.246094 C 161.332031 195.496094 158.988281 196.050781 158.894531 197.28125 C 158.71875 199.609375 160.792969 201.503906 159.847656 204.035156 C 158.40625 207.894531 150.476562 206.875 147.558594 208.742188 C 140.859375 213.019531 142.679688 222.5 143.460938 229.375 " fill-opacity="1" fill-rule="evenodd"/></g><g clip-path="url(#9e5da5e095)"><path fill="#ff9f7c" d="M 261.453125 225.628906 C 261.914062 225.507812 259.742188 219.191406 259.601562 218.773438 C 258.105469 214.414062 252.289062 203.609375 252.957031 199.144531 C 253.378906 196.332031 256.808594 193.757812 258.433594 191.785156 C 261.421875 188.164062 264.398438 184.050781 265.09375 179.21875 C 268.515625 155.429688 250.445312 145.375 228.503906 147.652344 C 217.996094 148.742188 205.722656 165.285156 205.574219 167.859375 C 205.40625 170.789062 207.308594 172.09375 206.855469 175.066406 C 206.308594 178.648438 201.542969 181.085938 200.703125 185.132812 C 199.960938 188.699219 203.953125 186.171875 204.199219 188.863281 C 204.277344 189.6875 202.980469 190.820312 202.695312 191.5 C 201.984375 193.214844 204.714844 192.277344 203.566406 193.535156 C 203.429688 193.683594 202.871094 194.023438 202.890625 194.246094 C 202.992188 195.496094 205.335938 196.050781 205.429688 197.28125 C 205.605469 199.609375 203.53125 201.503906 204.476562 204.035156 C 205.917969 207.894531 213.847656 206.875 216.765625 208.742188 C 223.464844 213.019531 221.648438 222.5 220.863281 229.375 " fill-opacity="1" fill-rule="evenodd"/></g><path stroke-linecap="round" transform="matrix(0.505264, 0, 0, 0.505264, -1217.651748, -622.677847)" fill="none" stroke-linejoin="round" d="M 2643.952597 1588.738981 C 2639.963346 1586.473767 2632.966693 1583.157122 2631.652405 1578.162826 C 2627.338447 1561.772878 2649.109246 1550.763781 2662.020196 1552.611515 C 2671.073323 1553.90261 2682.353009 1559.871025 2686.798396 1568.197428 C 2692.06328 1578.031397 2686.241756 1594.119832 2674.923414 1596.671098 C 2661.98154 1599.593457 2649.240675 1586.110405 2647.447058 1574.21223 C 2643.952597 1550.887478 2670.161052 1530.477354 2690.973194 1542.762084 C 2696.253541 1545.86999 2700.753045 1550.307645 2703.489857 1555.827656 C 2708.576926 1566.086836 2704.031035 1576.717109 2696.083456 1584.12351 C 2684.718728 1594.676472 2664.362721 1600.776316 2650.176139 1592.047896 C 2638.610402 1584.927545 2639.128386 1570.980627 2647.508907 1561.517751 C 2655.301863 1552.719751 2667.973149 1549.202097 2679.020902 1553.461937 C 2683.489482 1555.193705 2687.73386 1558.363459 2689.612519 1562.90162 C 2693.416224 1572.140293 2688.22092 1582.608213 2681.239729 1588.769906 C 2666.457852 1601.827747 2639.391244 1601.162871 2634.860815 1578.549382 C 2634.126359 1574.900299 2634.350561 1570.941972 2635.061823 1567.308351 C 2639.963346 1542.390991 2678.773506 1547.369824 2685.120745 1568.800455 C 2688.970837 1581.773253 2674.590977 1593.988404 2662.8165 1594.900674 C 2652.967069 1595.658323 2643.813437 1589.040495 2640.41175 1579.971905 C 2639.267546 1576.93358 2638.973764 1573.493237 2639.453093 1570.277096 C 2639.971077 1566.759442 2641.780156 1563.048511 2644.107219 1560.358085 C 2655.062199 1547.733186 2677.188629 1554.057233 2684.502257 1567.43978 C 2689.612519 1576.802151 2686.48142 1588.267384 2679.330146 1595.627398 C 2675.603752 1599.47749 2671.351643 1602.338 2666.341885 1604.239852 C 2637.806367 1615.086596 2629.789208 1564.517421 2657.188254 1558.332535 C 2663.821544 1556.8327 2671.150634 1558.239762 2677.490142 1560.273043 C 2682.608135 1561.919769 2688.893526 1564.571539 2691.390674 1569.728188 C 2694.413537 1575.936267 2689.983612 1583.280819 2685.113014 1587.130911 C 2673.856522 1596.029416 2657.551616 1599.469759 2644.841675 1591.483525 C 2621.138098 1576.577949 2646.511594 1542.267293 2669.387941 1548.467642 C 2696.500936 1555.819925 2686.033016 1584.502334 2669.457521 1597.606562 C 2661.788263 1603.690944 2651.830596 1607.177673 2642.978478 1601.209258 C 2627.980129 1591.089238 2632.641987 1568.553059 2643.511924 1557.296567 C 2653.021186 1547.462598 2669.712648 1546.457554 2680.907292 1554.219586 C 2690.03773 1560.543632 2690.277394 1572.379958 2685.909318 1581.657287 C 2678.402413 1597.598831 2654.907577 1611.661716 2640.257128 1595.673785 C 2629.603661 1584.030737 2634.172746 1563.396411 2647.678991 1556.020934 C 2658.618508 1550.06025 2674.761061 1553.237735 2683.659566 1561.432709 C 2691.398405 1568.56079 2689.852183 1579.268375 2683.520406 1586.821667 C 2673.663244 1598.588413 2647.439327 1612.713146 2632.966693 1599.523877 C 2624.307853 1591.607222 2627.670884 1577.598455 2632.727029 1568.746337 C 2641.896123 1552.688826 2662.638684 1543.419228 2679.477037 1553.879417 C 2682.407127 1555.688496 2685.182594 1558.208837 2687.17722 1561.022961 C 2700.482456 1579.639468 2686.102596 1601.332956 2667.339198 1608.229104 C 2658.409769 1611.530287 2647.563024 1612.5276 2639.57679 1606.31952 C 2626.758614 1596.346391 2630.276268 1576.570218 2641.238978 1566.790367 C 2646.867225 1561.772878 2654.737492 1559.871025 2662.112969 1559.97153 C 2668.630293 1560.056572 2677.760731 1561.602794 2681.518049 1567.779949 C 2686.280412 1575.611561 2680.853174 1585.522841 2674.853835 1590.857305 C 2663.643728 1600.830434 2642.738813 1605.809267 2632.827533 1591.421676 C 2615.710861 1566.581627 2653.083035 1526.271632 2677.366444 1548.498566 C 2693.632695 1563.380948 2684.656879 1591.050583 2666.697516 1600.528921 C 2653.469591 1607.510111 2637.597627 1601.286569 2633.786191 1586.388725 C 2628.660466 1566.303307 2651.590932 1550.369494 2669.650799 1551.513698 C 2679.090482 1552.108993 2689.813528 1556.422951 2691.908658 1566.736249 C 2695.55001 1584.656957 2678.812162 1600.412954 2663.682384 1606.118512 C 2652.433622 1610.370621 2640.20301 1608.136331 2634.396948 1596.802527 C 2624.106844 1576.678454 2644.006715 1534.273328 2669.990968 1549.256215 C 2673.253495 1551.142605 2676.206778 1553.608828 2678.618884 1556.507994 C 2685.507301 1564.803472 2689.713023 1576.129545 2686.566463 1586.860322 C 2680.837712 1606.45868 2655.843041 1616.168951 2638.277964 1605.878847 C 2616.538089 1593.161175 2626.851387 1566.202803 2642.352258 1553.400088 C 2649.480339 1547.508984 2660.242041 1542.012167 2669.202395 1547.416211 C 2674.227615 1550.462267 2677.722075 1555.719421 2679.36107 1561.278087 C 2684.10797 1577.250556 2675.928458 1595.581012 2661.618178 1603.520859 C 2646.758989 1611.777682 2629.696435 1598.000848 2630.067528 1582.283507 C 2630.50047 1564.246832 2655.55699 1549.743274 2672.209796 1552.487818 C 2679.08275 1553.616559 2686.551 1558.270686 2690.138234 1564.308681 C 2692.782273 1568.738606 2692.913702 1576.577949 2698.34094 1578.758122 C 2702.840444 1580.582663 2709.009868 1578.727197 2713.486179 1578.348373 C 2723.428384 1577.497951 2733.563866 1577.513413 2743.521533 1577.513413 C 2761.828796 1577.513413 2780.460765 1581.912413 2798.29643 1585.847547 C 2808.857124 1588.182342 2816.9284 1593.292604 2827.906573 1589.326546 C 2832.2128 1587.772593 2840.23769 1575.487863 2842.502904 1571.258947 C 2843.399713 1569.581297 2843.708957 1563.17994 2846.677702 1563.821622 C 2856.6431 1565.947676 2854.517045 1581.649556 2845.278372 1574.591054 C 2840.16811 1570.686845 2837.841046 1561.556407 2842.216853 1556.376565 C 2845.819549 1552.139918 2854.393348 1551.753362 2857.972851 1556.229674 C 2864.923116 1564.911708 2849.460901 1575.217274 2848.54863 1564.633388 C 2847.667284 1554.327821 2857.153353 1550.137561 2865.781269 1552.031682 C 2868.889175 1552.71202 2875.499272 1555.070008 2873.636075 1559.577243 C 2872.13624 1563.210864 2864.760763 1566.179609 2862.379582 1561.942962 C 2860.261258 1558.170182 2861.188991 1552.843449 2863.570172 1549.426299 C 2867.806819 1543.341917 2884.853912 1540.326785 2888.100977 1549.287139 C 2889.198794 1552.310002 2886.949042 1556.910011 2885.000803 1559.113377 C 2884.467356 1559.700941 2882.318109 1562.221282 2881.336258 1561.239432 C 2880.153398 1560.048841 2881.537267 1556.268329 2881.970209 1555.116394 C 2883.593741 1550.748318 2887.173244 1546.148309 2892.391742 1547.230664 C 2898.793099 1548.560415 2913.381699 1561.618256 2901.166549 1565.421961 C 2896.326876 1566.921796 2898.166879 1556.910011 2903.68689 1556.910011 C 2908.866732 1556.910011 2911.912789 1564.177252 2911.866402 1568.483479 C 2911.820015 1574.892568 2906.160845 1580.42031 2900.200161 1581.997456 C 2897.981333 1582.577289 2894.74973 1582.847877 2893.273088 1580.621318 C 2891.023336 1577.250556 2894.316788 1573.686515 2897.82671 1573.833406 C 2908.64253 1574.243155 2910.281525 1586.991751 2902.983359 1592.828737 C 2901.560835 1593.972941 2899.117805 1595.387734 2897.447886 1596.091265 C 2891.943338 1598.402866 2885.11677 1599.137321 2880.416256 1594.761514 C 2879.11743 1593.563193 2874.447841 1587.107718 2876.859947 1585.182672 C 2877.919108 1584.339981 2878.970539 1587.942677 2879.063312 1588.321502 C 2879.720456 1591.058314 2879.302977 1593.911093 2877.733562 1596.26908 C 2873.411873 1602.740017 2862.99807 1604.549097 2856.01688 1602.492622 C 2847.790982 1600.049592 2842.850804 1591.359827 2843.469293 1583.07208 C 2843.73215 1579.701317 2848.20073 1571.436763 2852.630655 1575.866687 C 2854.942256 1578.193751 2849.963423 1580.319805 2848.471319 1580.667705 C 2843.260553 1581.881489 2836.866927 1580.010561 2835.830958 1574.042146 C 2833.318348 1559.577243 2856.08646 1553.106306 2863.97219 1563.829353 C 2874.958094 1578.773584 2850.999391 1595.318154 2845.000052 1578.070053 C 2844.311983 1576.059965 2843.879041 1574.189037 2843.832655 1572.109369 C 2843.763075 1569.357095 2844.126437 1566.519778 2845.26291 1563.991706 C 2850.550987 1552.217229 2865.023621 1551.173529 2876.140954 1553.740257 C 2880.756425 1554.80715 2888.773583 1556.97186 2890.319805 1562.360442 C 2891.997455 1568.181966 2881.861973 1581.518127 2875.352381 1577.992742 C 2870.767834 1575.518787 2876.04818 1565.76213 2877.957764 1563.373217 C 2887.930893 1550.902941 2904.846556 1558.038753 2903.640503 1573.802481 C 2902.643191 1586.713431 2879.156086 1602.569933 2870.791027 1587.246878 C 2865.812194 1578.131902 2872.770191 1565.089523 2883.230379 1564.308681 C 2889.368879 1563.852546 2896.852591 1569.318439 2893.520484 1575.982654 C 2885.920805 1591.182012 2848.819219 1595.696978 2847.976528 1573.361808 C 2847.157031 1551.467311 2885.317778 1546.357049 2885.8203 1570.308021 C 2886.059965 1581.773253 2872.971199 1591.143356 2862.71202 1592.612266 C 2854.586625 1593.771933 2846.840055 1589.450243 2846.360727 1580.62905 C 2845.100556 1557.466651 2882.109369 1555.008159 2887.977279 1575.858956 C 2891.997455 1590.12285 2873.690192 1602.260689 2863.701601 1590.176968 C 2853.133177 1577.412909 2865.348327 1558.123795 2880.702307 1558.046484 C 2888.642155 1558.007829 2900.300665 1565.228683 2900.192429 1574.042146 C 2900.130581 1578.858626 2896.002169 1582.79376 2892.407204 1585.437799 C 2883.477775 1592.016971 2863.461937 1599.732617 2855.630325 1587.177298 C 2851.610149 1580.721823 2855.777216 1573.207186 2861.127142 1569.101968 C 2871.02296 1561.517751 2890.683167 1559.863294 2895.762505 1574.366852 C 2897.679819 1579.871401 2892.469053 1584.827041 2888.240137 1587.239147 C 2879.511716 1592.233442 2868.479426 1593.292604 2859.751005 1587.826711 C 2853.117715 1583.690568 2849.986616 1577.876775 2857.911002 1573.717439 C 2859.580921 1572.843824 2863.546979 1571.150712 2864.87673 1570.563147 " stroke="#000000" stroke-width="0.8" stroke-opacity="1" stroke-miterlimit="1.5"/><g fill="#000000" fill-opacity="1"><g transform="translate(52.319889, 255.4699)"><g><path d="M 10.15625 -13.265625 C 10.71875 -13.265625 11.234375 -13.191406 11.703125 -13.046875 C 12.179688 -12.898438 12.609375 -12.695312 12.984375 -12.4375 C 13.359375 -12.175781 13.675781 -11.867188 13.9375 -11.515625 C 14.195312 -11.160156 14.394531 -10.769531 14.53125 -10.34375 C 14.664062 -9.914062 14.734375 -9.46875 14.734375 -9 C 14.734375 -8.519531 14.664062 -8.066406 14.53125 -7.640625 C 14.394531 -7.222656 14.195312 -6.84375 13.9375 -6.5 C 13.675781 -6.15625 13.359375 -5.851562 12.984375 -5.59375 C 12.609375 -5.34375 12.179688 -5.148438 11.703125 -5.015625 C 11.234375 -4.878906 10.71875 -4.8125 10.15625 -4.8125 L 4.515625 -4.8125 L 4.515625 0 L 1.671875 0 L 1.671875 -13.265625 Z M 9.6875 -6.984375 C 10.207031 -6.984375 10.640625 -7.066406 10.984375 -7.234375 C 11.328125 -7.410156 11.582031 -7.648438 11.75 -7.953125 C 11.914062 -8.265625 12 -8.628906 12 -9.046875 C 12 -9.441406 11.914062 -9.789062 11.75 -10.09375 C 11.582031 -10.40625 11.328125 -10.648438 10.984375 -10.828125 C 10.640625 -11.003906 10.207031 -11.09375 9.6875 -11.09375 L 4.515625 -11.09375 L 4.515625 -6.984375 Z M 9.6875 -6.984375 "/></g></g></g><g fill="#000000" fill-opacity="1"><g transform="translate(67.586785, 255.4699)"><g><path d="M 7.59375 0.171875 C 6.976562 0.171875 6.390625 0.140625 5.828125 0.078125 C 5.265625 0.0234375 4.738281 -0.0625 4.25 -0.1875 C 3.769531 -0.320312 3.328125 -0.5 2.921875 -0.71875 C 2.523438 -0.9375 2.171875 -1.207031 1.859375 -1.53125 C 1.554688 -1.863281 1.3125 -2.253906 1.125 -2.703125 C 0.9375 -3.148438 0.804688 -3.671875 0.734375 -4.265625 L 3.6875 -4.265625 C 3.726562 -3.878906 3.832031 -3.546875 4 -3.265625 C 4.164062 -2.984375 4.378906 -2.75 4.640625 -2.5625 C 4.898438 -2.382812 5.191406 -2.242188 5.515625 -2.140625 C 5.847656 -2.035156 6.195312 -1.960938 6.5625 -1.921875 C 6.925781 -1.878906 7.289062 -1.859375 7.65625 -1.859375 C 8.164062 -1.859375 8.640625 -1.894531 9.078125 -1.96875 C 9.515625 -2.050781 9.894531 -2.175781 10.21875 -2.34375 C 10.550781 -2.507812 10.804688 -2.726562 10.984375 -3 C 11.160156 -3.28125 11.25 -3.613281 11.25 -4 C 11.25 -4.320312 11.191406 -4.582031 11.078125 -4.78125 C 10.960938 -4.988281 10.796875 -5.15625 10.578125 -5.28125 C 10.359375 -5.40625 10.09375 -5.492188 9.78125 -5.546875 C 9.476562 -5.609375 9.132812 -5.648438 8.75 -5.671875 C 8.375 -5.703125 7.96875 -5.722656 7.53125 -5.734375 C 7.207031 -5.742188 6.867188 -5.753906 6.515625 -5.765625 C 6.160156 -5.785156 5.800781 -5.8125 5.4375 -5.84375 C 5.070312 -5.882812 4.707031 -5.941406 4.34375 -6.015625 C 3.988281 -6.085938 3.648438 -6.179688 3.328125 -6.296875 C 3.003906 -6.410156 2.703125 -6.554688 2.421875 -6.734375 C 2.140625 -6.921875 1.894531 -7.144531 1.6875 -7.40625 C 1.476562 -7.664062 1.316406 -7.96875 1.203125 -8.3125 C 1.085938 -8.65625 1.03125 -9.054688 1.03125 -9.515625 C 1.03125 -10.085938 1.128906 -10.585938 1.328125 -11.015625 C 1.523438 -11.453125 1.8125 -11.820312 2.1875 -12.125 C 2.5625 -12.425781 3.003906 -12.671875 3.515625 -12.859375 C 4.023438 -13.054688 4.597656 -13.203125 5.234375 -13.296875 C 5.867188 -13.390625 6.546875 -13.4375 7.265625 -13.4375 C 8.597656 -13.4375 9.738281 -13.289062 10.6875 -13 C 11.644531 -12.707031 12.390625 -12.265625 12.921875 -11.671875 C 13.453125 -11.078125 13.753906 -10.332031 13.828125 -9.4375 L 11 -9.4375 C 10.945312 -9.757812 10.84375 -10.03125 10.6875 -10.25 C 10.539062 -10.476562 10.351562 -10.671875 10.125 -10.828125 C 9.894531 -10.984375 9.628906 -11.109375 9.328125 -11.203125 C 9.023438 -11.296875 8.703125 -11.363281 8.359375 -11.40625 C 8.015625 -11.445312 7.65625 -11.46875 7.28125 -11.46875 C 6.894531 -11.46875 6.53125 -11.445312 6.1875 -11.40625 C 5.851562 -11.363281 5.539062 -11.300781 5.25 -11.21875 C 4.96875 -11.132812 4.722656 -11.019531 4.515625 -10.875 C 4.304688 -10.738281 4.144531 -10.566406 4.03125 -10.359375 C 3.914062 -10.160156 3.859375 -9.925781 3.859375 -9.65625 C 3.859375 -9.351562 3.929688 -9.101562 4.078125 -8.90625 C 4.222656 -8.71875 4.425781 -8.570312 4.6875 -8.46875 C 4.945312 -8.363281 5.253906 -8.28125 5.609375 -8.21875 C 5.972656 -8.164062 6.375 -8.125 6.8125 -8.09375 C 7.25 -8.070312 7.710938 -8.050781 8.203125 -8.03125 C 8.609375 -8.007812 9.015625 -7.984375 9.421875 -7.953125 C 9.828125 -7.921875 10.222656 -7.867188 10.609375 -7.796875 C 11.003906 -7.734375 11.378906 -7.640625 11.734375 -7.515625 C 12.085938 -7.398438 12.410156 -7.25 12.703125 -7.0625 C 13.003906 -6.875 13.265625 -6.640625 13.484375 -6.359375 C 13.703125 -6.085938 13.867188 -5.757812 13.984375 -5.375 C 14.109375 -4.988281 14.171875 -4.539062 14.171875 -4.03125 C 14.171875 -3.382812 14.066406 -2.820312 13.859375 -2.34375 C 13.648438 -1.875 13.351562 -1.472656 12.96875 -1.140625 C 12.582031 -0.816406 12.117188 -0.554688 11.578125 -0.359375 C 11.046875 -0.171875 10.441406 -0.0351562 9.765625 0.046875 C 9.097656 0.128906 8.375 0.171875 7.59375 0.171875 Z M 7.59375 0.171875 "/></g></g></g><g fill="#000000" fill-opacity="1"><g transform="translate(82.548078, 255.4699)"><g><path d="M 1.671875 0 L 1.671875 -13.265625 L 4.515625 -13.265625 L 4.515625 0 Z M 1.671875 0 "/></g></g></g><g fill="#000000" fill-opacity="1"><g transform="translate(88.734293, 255.4699)"><g><path d="M 11.875 -13.265625 L 14.703125 -13.265625 L 14.703125 0 L 11.875 0 L 11.875 -5.515625 L 4.515625 -5.515625 L 4.515625 0 L 1.671875 0 L 1.671875 -13.265625 L 4.515625 -13.265625 L 4.515625 -7.765625 L 11.875 -7.765625 Z M 11.875 -13.265625 "/></g></g></g><g fill="#000000" fill-opacity="1"><g transform="translate(105.118812, 255.4699)"><g><path d="M 8.390625 0.171875 C 7.492188 0.171875 6.65625 0.078125 5.875 -0.109375 C 5.101562 -0.304688 4.398438 -0.59375 3.765625 -0.96875 C 3.140625 -1.34375 2.597656 -1.804688 2.140625 -2.359375 C 1.691406 -2.910156 1.347656 -3.539062 1.109375 -4.25 C 0.867188 -4.96875 0.75 -5.765625 0.75 -6.640625 C 0.75 -7.503906 0.867188 -8.289062 1.109375 -9 C 1.347656 -9.71875 1.691406 -10.351562 2.140625 -10.90625 C 2.597656 -11.457031 3.140625 -11.921875 3.765625 -12.296875 C 4.398438 -12.671875 5.101562 -12.953125 5.875 -13.140625 C 6.65625 -13.335938 7.492188 -13.4375 8.390625 -13.4375 C 9.285156 -13.4375 10.125 -13.335938 10.90625 -13.140625 C 11.6875 -12.953125 12.394531 -12.671875 13.03125 -12.296875 C 13.664062 -11.921875 14.207031 -11.457031 14.65625 -10.90625 C 15.113281 -10.351562 15.460938 -9.71875 15.703125 -9 C 15.953125 -8.289062 16.078125 -7.503906 16.078125 -6.640625 C 16.078125 -5.765625 15.953125 -4.96875 15.703125 -4.25 C 15.460938 -3.539062 15.113281 -2.910156 14.65625 -2.359375 C 14.207031 -1.804688 13.664062 -1.34375 13.03125 -0.96875 C 12.394531 -0.59375 11.6875 -0.304688 10.90625 -0.109375 C 10.125 0.078125 9.285156 0.171875 8.390625 0.171875 Z M 8.390625 -2.0625 C 8.972656 -2.0625 9.515625 -2.117188 10.015625 -2.234375 C 10.523438 -2.359375 10.984375 -2.539062 11.390625 -2.78125 C 11.796875 -3.019531 12.144531 -3.320312 12.4375 -3.6875 C 12.726562 -4.050781 12.953125 -4.476562 13.109375 -4.96875 C 13.265625 -5.457031 13.34375 -6.015625 13.34375 -6.640625 C 13.34375 -7.253906 13.265625 -7.800781 13.109375 -8.28125 C 12.953125 -8.769531 12.726562 -9.195312 12.4375 -9.5625 C 12.144531 -9.925781 11.796875 -10.226562 11.390625 -10.46875 C 10.984375 -10.707031 10.523438 -10.882812 10.015625 -11 C 9.515625 -11.125 8.972656 -11.1875 8.390625 -11.1875 C 7.671875 -11.1875 7.007812 -11.09375 6.40625 -10.90625 C 5.800781 -10.71875 5.28125 -10.4375 4.84375 -10.0625 C 4.414062 -9.6875 4.082031 -9.210938 3.84375 -8.640625 C 3.601562 -8.078125 3.484375 -7.410156 3.484375 -6.640625 C 3.484375 -5.867188 3.601562 -5.191406 3.84375 -4.609375 C 4.082031 -4.035156 4.414062 -3.5625 4.84375 -3.1875 C 5.28125 -2.8125 5.800781 -2.53125 6.40625 -2.34375 C 7.007812 -2.15625 7.671875 -2.0625 8.390625 -2.0625 Z M 8.390625 -2.0625 "/></g></g></g><g fill="#000000" fill-opacity="1"><g transform="translate(121.939901, 255.4699)"><g><path d="M 4.515625 -2.28125 L 12.65625 -2.28125 L 12.65625 0 L 1.671875 0 L 1.671875 -13.265625 L 4.515625 -13.265625 Z M 4.515625 -2.28125 "/></g></g></g><g fill="#000000" fill-opacity="1"><g transform="translate(134.910429, 255.4699)"><g><path d="M 8.390625 0.171875 C 7.492188 0.171875 6.65625 0.078125 5.875 -0.109375 C 5.101562 -0.304688 4.398438 -0.59375 3.765625 -0.96875 C 3.140625 -1.34375 2.597656 -1.804688 2.140625 -2.359375 C 1.691406 -2.910156 1.347656 -3.539062 1.109375 -4.25 C 0.867188 -4.96875 0.75 -5.765625 0.75 -6.640625 C 0.75 -7.503906 0.867188 -8.289062 1.109375 -9 C 1.347656 -9.71875 1.691406 -10.351562 2.140625 -10.90625 C 2.597656 -11.457031 3.140625 -11.921875 3.765625 -12.296875 C 4.398438 -12.671875 5.101562 -12.953125 5.875 -13.140625 C 6.65625 -13.335938 7.492188 -13.4375 8.390625 -13.4375 C 9.285156 -13.4375 10.125 -13.335938 10.90625 -13.140625 C 11.6875 -12.953125 12.394531 -12.671875 13.03125 -12.296875 C 13.664062 -11.921875 14.207031 -11.457031 14.65625 -10.90625 C 15.113281 -10.351562 15.460938 -9.71875 15.703125 -9 C 15.953125 -8.289062 16.078125 -7.503906 16.078125 -6.640625 C 16.078125 -5.765625 15.953125 -4.96875 15.703125 -4.25 C 15.460938 -3.539062 15.113281 -2.910156 14.65625 -2.359375 C 14.207031 -1.804688 13.664062 -1.34375 13.03125 -0.96875 C 12.394531 -0.59375 11.6875 -0.304688 10.90625 -0.109375 C 10.125 0.078125 9.285156 0.171875 8.390625 0.171875 Z M 8.390625 -2.0625 C 8.972656 -2.0625 9.515625 -2.117188 10.015625 -2.234375 C 10.523438 -2.359375 10.984375 -2.539062 11.390625 -2.78125 C 11.796875 -3.019531 12.144531 -3.320312 12.4375 -3.6875 C 12.726562 -4.050781 12.953125 -4.476562 13.109375 -4.96875 C 13.265625 -5.457031 13.34375 -6.015625 13.34375 -6.640625 C 13.34375 -7.253906 13.265625 -7.800781 13.109375 -8.28125 C 12.953125 -8.769531 12.726562 -9.195312 12.4375 -9.5625 C 12.144531 -9.925781 11.796875 -10.226562 11.390625 -10.46875 C 10.984375 -10.707031 10.523438 -10.882812 10.015625 -11 C 9.515625 -11.125 8.972656 -11.1875 8.390625 -11.1875 C 7.671875 -11.1875 7.007812 -11.09375 6.40625 -10.90625 C 5.800781 -10.71875 5.28125 -10.4375 4.84375 -10.0625 C 4.414062 -9.6875 4.082031 -9.210938 3.84375 -8.640625 C 3.601562 -8.078125 3.484375 -7.410156 3.484375 -6.640625 C 3.484375 -5.867188 3.601562 -5.191406 3.84375 -4.609375 C 4.082031 -4.035156 4.414062 -3.5625 4.84375 -3.1875 C 5.28125 -2.8125 5.800781 -2.53125 6.40625 -2.34375 C 7.007812 -2.15625 7.671875 -2.0625 8.390625 -2.0625 Z M 8.390625 -2.0625 "/></g></g></g><g fill="#000000" fill-opacity="1"><g transform="translate(151.731519, 255.4699)"><g><path d="M 9.328125 -6.75 L 15.953125 -6.75 L 15.953125 0 L 14.109375 0 L 13.71875 -2.171875 C 13.195312 -1.398438 12.5 -0.816406 11.625 -0.421875 C 10.757812 -0.0234375 9.679688 0.171875 8.390625 0.171875 C 7.492188 0.171875 6.65625 0.078125 5.875 -0.109375 C 5.101562 -0.304688 4.398438 -0.59375 3.765625 -0.96875 C 3.140625 -1.34375 2.597656 -1.804688 2.140625 -2.359375 C 1.691406 -2.910156 1.347656 -3.539062 1.109375 -4.25 C 0.867188 -4.96875 0.75 -5.765625 0.75 -6.640625 C 0.75 -7.503906 0.867188 -8.289062 1.109375 -9 C 1.347656 -9.71875 1.691406 -10.351562 2.140625 -10.90625 C 2.597656 -11.457031 3.140625 -11.921875 3.765625 -12.296875 C 4.398438 -12.671875 5.101562 -12.953125 5.875 -13.140625 C 6.65625 -13.335938 7.492188 -13.4375 8.390625 -13.4375 C 9.160156 -13.4375 9.882812 -13.363281 10.5625 -13.21875 C 11.25 -13.082031 11.878906 -12.875 12.453125 -12.59375 C 13.035156 -12.320312 13.550781 -11.984375 14 -11.578125 C 14.457031 -11.171875 14.84375 -10.703125 15.15625 -10.171875 C 15.46875 -9.648438 15.703125 -9.066406 15.859375 -8.421875 L 13.0625 -8.421875 C 12.90625 -8.890625 12.675781 -9.296875 12.375 -9.640625 C 12.082031 -9.984375 11.734375 -10.269531 11.328125 -10.5 C 10.929688 -10.726562 10.484375 -10.898438 9.984375 -11.015625 C 9.484375 -11.128906 8.953125 -11.1875 8.390625 -11.1875 C 7.816406 -11.1875 7.273438 -11.125 6.765625 -11 C 6.265625 -10.882812 5.8125 -10.707031 5.40625 -10.46875 C 5 -10.226562 4.648438 -9.925781 4.359375 -9.5625 C 4.066406 -9.195312 3.84375 -8.769531 3.6875 -8.28125 C 3.53125 -7.800781 3.453125 -7.253906 3.453125 -6.640625 C 3.453125 -6.015625 3.53125 -5.457031 3.6875 -4.96875 C 3.84375 -4.476562 4.066406 -4.050781 4.359375 -3.6875 C 4.648438 -3.320312 5 -3.019531 5.40625 -2.78125 C 5.8125 -2.539062 6.265625 -2.359375 6.765625 -2.234375 C 7.273438 -2.117188 7.816406 -2.0625 8.390625 -2.0625 C 8.953125 -2.0625 9.476562 -2.117188 9.96875 -2.234375 C 10.46875 -2.347656 10.921875 -2.519531 11.328125 -2.75 C 11.734375 -2.976562 12.082031 -3.269531 12.375 -3.625 C 12.675781 -3.976562 12.910156 -4.398438 13.078125 -4.890625 L 9.328125 -4.890625 Z M 9.328125 -6.75 "/></g></g></g><g fill="#000000" fill-opacity="1"><g transform="translate(168.880035, 255.4699)"><g><path d="M 1.671875 0 L 1.671875 -13.265625 L 4.515625 -13.265625 L 4.515625 0 Z M 1.671875 0 "/></g></g></g><g fill="#000000" fill-opacity="1"><g transform="translate(175.06625, 255.4699)"><g><path d="M 11.625 0 L 10.5625 -2.8125 L 4.3125 -2.8125 L 3.25 0 L 0.328125 0 L 5.640625 -13.265625 L 9.25 -13.265625 L 14.546875 0 Z M 5.125 -4.96875 L 9.75 -4.96875 L 7.53125 -10.859375 L 7.34375 -10.859375 Z M 5.125 -4.96875 "/></g></g></g><g fill="#000000" fill-opacity="1"><g transform="translate(189.935861, 255.4699)"><g/></g></g><g fill="#000000" fill-opacity="1"><g transform="translate(194.707579, 255.4699)"><g><path d="M 1.671875 0 L 1.671875 -13.265625 L 10.359375 -13.265625 C 11.003906 -13.265625 11.578125 -13.195312 12.078125 -13.0625 C 12.585938 -12.9375 13.023438 -12.757812 13.390625 -12.53125 C 13.753906 -12.3125 14.054688 -12.050781 14.296875 -11.75 C 14.535156 -11.445312 14.707031 -11.113281 14.8125 -10.75 C 14.925781 -10.394531 14.984375 -10.019531 14.984375 -9.625 C 14.984375 -9.15625 14.921875 -8.734375 14.796875 -8.359375 C 14.679688 -7.984375 14.507812 -7.65625 14.28125 -7.375 C 14.0625 -7.101562 13.800781 -6.875 13.5 -6.6875 C 13.207031 -6.507812 12.890625 -6.367188 12.546875 -6.265625 C 12.203125 -6.171875 11.84375 -6.113281 11.46875 -6.09375 C 11.75 -5.96875 11.984375 -5.804688 12.171875 -5.609375 C 12.359375 -5.421875 12.515625 -5.207031 12.640625 -4.96875 C 12.773438 -4.726562 12.882812 -4.472656 12.96875 -4.203125 C 13.0625 -3.929688 13.140625 -3.648438 13.203125 -3.359375 C 13.265625 -3.066406 13.320312 -2.769531 13.375 -2.46875 C 13.4375 -2.175781 13.503906 -1.882812 13.578125 -1.59375 C 13.660156 -1.300781 13.753906 -1.019531 13.859375 -0.75 C 13.972656 -0.476562 14.109375 -0.226562 14.265625 0 L 11.296875 0 C 11.140625 -0.226562 11.015625 -0.476562 10.921875 -0.75 C 10.828125 -1.03125 10.75 -1.320312 10.6875 -1.625 C 10.625 -1.9375 10.5625 -2.242188 10.5 -2.546875 C 10.4375 -2.859375 10.367188 -3.160156 10.296875 -3.453125 C 10.222656 -3.753906 10.128906 -4.03125 10.015625 -4.28125 C 9.910156 -4.539062 9.769531 -4.765625 9.59375 -4.953125 C 9.414062 -5.148438 9.191406 -5.300781 8.921875 -5.40625 C 8.660156 -5.519531 8.34375 -5.578125 7.96875 -5.578125 L 4.515625 -5.578125 L 4.515625 0 Z M 4.515625 -7.625 L 9.90625 -7.625 C 10.46875 -7.625 10.921875 -7.691406 11.265625 -7.828125 C 11.617188 -7.960938 11.875 -8.160156 12.03125 -8.421875 C 12.195312 -8.679688 12.28125 -9 12.28125 -9.375 C 12.28125 -9.75 12.195312 -10.066406 12.03125 -10.328125 C 11.875 -10.585938 11.617188 -10.78125 11.265625 -10.90625 C 10.921875 -11.039062 10.46875 -11.109375 9.90625 -11.109375 L 4.515625 -11.109375 Z M 4.515625 -7.625 "/></g></g></g><g fill="#000000" fill-opacity="1"><g transform="translate(210.314997, 255.4699)"><g><path d="M 4.515625 -2.28125 L 13 -2.28125 L 13 0 L 1.671875 0 L 1.671875 -13.265625 L 12.53125 -13.265625 L 12.53125 -10.984375 L 4.515625 -10.984375 L 4.515625 -7.8125 L 9.40625 -7.8125 L 9.40625 -5.796875 L 4.515625 -5.796875 Z M 4.515625 -2.28125 "/></g></g></g><g fill="#000000" fill-opacity="1"><g transform="translate(223.93165, 255.4699)"><g><path d="M 4.515625 -2.28125 L 12.65625 -2.28125 L 12.65625 0 L 1.671875 0 L 1.671875 -13.265625 L 4.515625 -13.265625 Z M 4.515625 -2.28125 "/></g></g></g><g fill="#000000" fill-opacity="1"><g transform="translate(236.909477, 255.4699)"><g><path d="M 11.625 0 L 10.5625 -2.8125 L 4.3125 -2.8125 L 3.25 0 L 0.328125 0 L 5.640625 -13.265625 L 9.25 -13.265625 L 14.546875 0 Z M 5.125 -4.96875 L 9.75 -4.96875 L 7.53125 -10.859375 L 7.34375 -10.859375 Z M 5.125 -4.96875 "/></g></g></g><g fill="#000000" fill-opacity="1"><g transform="translate(251.779094, 255.4699)"><g><path d="M 0.3125 -13.265625 L 12.8125 -13.265625 L 12.8125 -10.984375 L 7.96875 -10.984375 L 7.96875 0 L 5.15625 0 L 5.15625 -10.984375 L 0.3125 -10.984375 Z M 5.125 3.09375 L 5.125 1.09375 L 7.96875 1.09375 L 7.96875 3.09375 C 7.96875 3.21875 7.960938 3.351562 7.953125 3.5 C 7.941406 3.65625 7.910156 3.804688 7.859375 3.953125 C 7.804688 4.097656 7.71875 4.234375 7.59375 4.359375 C 7.476562 4.492188 7.316406 4.613281 7.109375 4.71875 C 6.898438 4.820312 6.632812 4.898438 6.3125 4.953125 C 5.988281 5.015625 5.59375 5.046875 5.125 5.046875 L 5.125 4.125 C 5.414062 4.125 5.648438 4.109375 5.828125 4.078125 C 6.015625 4.046875 6.15625 4 6.25 3.9375 C 6.351562 3.875 6.421875 3.800781 6.453125 3.71875 C 6.492188 3.632812 6.515625 3.539062 6.515625 3.4375 C 6.523438 3.332031 6.53125 3.21875 6.53125 3.09375 Z M 5.125 3.09375 "/></g></g></g><g fill="#000000" fill-opacity="1"><g transform="translate(264.89806, 255.4699)"><g><path d="M 1.671875 0 L 1.671875 -13.265625 L 4.515625 -13.265625 L 4.515625 0 Z M 1.671875 0 "/></g></g></g><g fill="#000000" fill-opacity="1"><g transform="translate(271.084276, 255.4699)"><g><path d="M 1.671875 0 L 1.671875 -13.265625 L 4.515625 -13.265625 L 4.515625 0 Z M 1.671875 0 "/></g></g></g><g fill="#000000" fill-opacity="1"><g transform="translate(277.270491, 255.4699)"><g><path d="M 4.515625 -2.28125 L 12.65625 -2.28125 L 12.65625 0 L 1.671875 0 L 1.671875 -13.265625 L 4.515625 -13.265625 Z M 4.515625 -2.28125 "/></g></g></g><g fill="#000000" fill-opacity="1"><g transform="translate(290.241019, 255.4699)"><g><path d="M 8.390625 0.171875 C 7.492188 0.171875 6.65625 0.078125 5.875 -0.109375 C 5.101562 -0.304688 4.398438 -0.59375 3.765625 -0.96875 C 3.140625 -1.34375 2.597656 -1.804688 2.140625 -2.359375 C 1.691406 -2.910156 1.347656 -3.539062 1.109375 -4.25 C 0.867188 -4.96875 0.75 -5.765625 0.75 -6.640625 C 0.75 -7.503906 0.867188 -8.289062 1.109375 -9 C 1.347656 -9.71875 1.691406 -10.351562 2.140625 -10.90625 C 2.597656 -11.457031 3.140625 -11.921875 3.765625 -12.296875 C 4.398438 -12.671875 5.101562 -12.953125 5.875 -13.140625 C 6.65625 -13.335938 7.492188 -13.4375 8.390625 -13.4375 C 9.285156 -13.4375 10.125 -13.335938 10.90625 -13.140625 C 11.6875 -12.953125 12.394531 -12.671875 13.03125 -12.296875 C 13.664062 -11.921875 14.207031 -11.457031 14.65625 -10.90625 C 15.113281 -10.351562 15.460938 -9.71875 15.703125 -9 C 15.953125 -8.289062 16.078125 -7.503906 16.078125 -6.640625 C 16.078125 -5.765625 15.953125 -4.96875 15.703125 -4.25 C 15.460938 -3.539062 15.113281 -2.910156 14.65625 -2.359375 C 14.207031 -1.804688 13.664062 -1.34375 13.03125 -0.96875 C 12.394531 -0.59375 11.6875 -0.304688 10.90625 -0.109375 C 10.125 0.078125 9.285156 0.171875 8.390625 0.171875 Z M 8.390625 -2.0625 C 8.972656 -2.0625 9.515625 -2.117188 10.015625 -2.234375 C 10.523438 -2.359375 10.984375 -2.539062 11.390625 -2.78125 C 11.796875 -3.019531 12.144531 -3.320312 12.4375 -3.6875 C 12.726562 -4.050781 12.953125 -4.476562 13.109375 -4.96875 C 13.265625 -5.457031 13.34375 -6.015625 13.34375 -6.640625 C 13.34375 -7.253906 13.265625 -7.800781 13.109375 -8.28125 C 12.953125 -8.769531 12.726562 -9.195312 12.4375 -9.5625 C 12.144531 -9.925781 11.796875 -10.226562 11.390625 -10.46875 C 10.984375 -10.707031 10.523438 -10.882812 10.015625 -11 C 9.515625 -11.125 8.972656 -11.1875 8.390625 -11.1875 C 7.671875 -11.1875 7.007812 -11.09375 6.40625 -10.90625 C 5.800781 -10.71875 5.28125 -10.4375 4.84375 -10.0625 C 4.414062 -9.6875 4.082031 -9.210938 3.84375 -8.640625 C 3.601562 -8.078125 3.484375 -7.410156 3.484375 -6.640625 C 3.484375 -5.867188 3.601562 -5.191406 3.84375 -4.609375 C 4.082031 -4.035156 4.414062 -3.5625 4.84375 -3.1875 C 5.28125 -2.8125 5.800781 -2.53125 6.40625 -2.34375 C 7.007812 -2.15625 7.671875 -2.0625 8.390625 -2.0625 Z M 8.390625 -2.0625 "/></g></g></g><g fill="#000000" fill-opacity="1"><g transform="translate(307.062109, 255.4699)"><g><path d="M 1.671875 0 L 1.671875 -13.265625 L 10.359375 -13.265625 C 11.003906 -13.265625 11.578125 -13.195312 12.078125 -13.0625 C 12.585938 -12.9375 13.023438 -12.757812 13.390625 -12.53125 C 13.753906 -12.3125 14.054688 -12.050781 14.296875 -11.75 C 14.535156 -11.445312 14.707031 -11.113281 14.8125 -10.75 C 14.925781 -10.394531 14.984375 -10.019531 14.984375 -9.625 C 14.984375 -9.15625 14.921875 -8.734375 14.796875 -8.359375 C 14.679688 -7.984375 14.507812 -7.65625 14.28125 -7.375 C 14.0625 -7.101562 13.800781 -6.875 13.5 -6.6875 C 13.207031 -6.507812 12.890625 -6.367188 12.546875 -6.265625 C 12.203125 -6.171875 11.84375 -6.113281 11.46875 -6.09375 C 11.75 -5.96875 11.984375 -5.804688 12.171875 -5.609375 C 12.359375 -5.421875 12.515625 -5.207031 12.640625 -4.96875 C 12.773438 -4.726562 12.882812 -4.472656 12.96875 -4.203125 C 13.0625 -3.929688 13.140625 -3.648438 13.203125 -3.359375 C 13.265625 -3.066406 13.320312 -2.769531 13.375 -2.46875 C 13.4375 -2.175781 13.503906 -1.882812 13.578125 -1.59375 C 13.660156 -1.300781 13.753906 -1.019531 13.859375 -0.75 C 13.972656 -0.476562 14.109375 -0.226562 14.265625 0 L 11.296875 0 C 11.140625 -0.226562 11.015625 -0.476562 10.921875 -0.75 C 10.828125 -1.03125 10.75 -1.320312 10.6875 -1.625 C 10.625 -1.9375 10.5625 -2.242188 10.5 -2.546875 C 10.4375 -2.859375 10.367188 -3.160156 10.296875 -3.453125 C 10.222656 -3.753906 10.128906 -4.03125 10.015625 -4.28125 C 9.910156 -4.539062 9.769531 -4.765625 9.59375 -4.953125 C 9.414062 -5.148438 9.191406 -5.300781 8.921875 -5.40625 C 8.660156 -5.519531 8.34375 -5.578125 7.96875 -5.578125 L 4.515625 -5.578125 L 4.515625 0 Z M 4.515625 -7.625 L 9.90625 -7.625 C 10.46875 -7.625 10.921875 -7.691406 11.265625 -7.828125 C 11.617188 -7.960938 11.875 -8.160156 12.03125 -8.421875 C 12.195312 -8.679688 12.28125 -9 12.28125 -9.375 C 12.28125 -9.75 12.195312 -10.066406 12.03125 -10.328125 C 11.875 -10.585938 11.617188 -10.78125 11.265625 -10.90625 C 10.921875 -11.039062 10.46875 -11.109375 9.90625 -11.109375 L 4.515625 -11.109375 Z M 4.515625 -7.625 "/></g></g></g><g fill="#000000" fill-opacity="1"><g transform="translate(117.168302, 129.748045)"><g><path d="M 6.3125 -9.234375 C 6.863281 -9.234375 7.367188 -9.117188 7.828125 -8.890625 C 8.285156 -8.660156 8.675781 -8.332031 9 -7.90625 C 9.332031 -7.488281 9.585938 -6.988281 9.765625 -6.40625 C 9.953125 -5.832031 10.046875 -5.195312 10.046875 -4.5 C 10.046875 -3.789062 9.953125 -3.148438 9.765625 -2.578125 C 9.578125 -2.003906 9.3125 -1.507812 8.96875 -1.09375 C 8.632812 -0.6875 8.238281 -0.375 7.78125 -0.15625 C 7.320312 0.0507812 6.816406 0.15625 6.265625 0.15625 C 5.679688 0.15625 5.117188 0.015625 4.578125 -0.265625 C 4.046875 -0.546875 3.617188 -0.972656 3.296875 -1.546875 L 3.296875 3.625 C 3.296875 3.71875 3.25 3.765625 3.15625 3.765625 L 1.625 3.765625 C 1.53125 3.765625 1.484375 3.71875 1.484375 3.625 L 1.484375 -8.9375 C 1.484375 -9.03125 1.53125 -9.078125 1.625 -9.078125 L 2.921875 -9.078125 C 3.003906 -9.078125 3.050781 -9.035156 3.0625 -8.953125 L 3.1875 -7.3125 C 3.394531 -7.738281 3.660156 -8.09375 3.984375 -8.375 C 4.316406 -8.664062 4.679688 -8.878906 5.078125 -9.015625 C 5.484375 -9.160156 5.894531 -9.234375 6.3125 -9.234375 Z M 5.75 -1.421875 C 6.269531 -1.421875 6.71875 -1.554688 7.09375 -1.828125 C 7.476562 -2.097656 7.769531 -2.46875 7.96875 -2.9375 C 8.175781 -3.40625 8.28125 -3.929688 8.28125 -4.515625 C 8.28125 -5.117188 8.175781 -5.648438 7.96875 -6.109375 C 7.769531 -6.578125 7.476562 -6.941406 7.09375 -7.203125 C 6.71875 -7.472656 6.269531 -7.609375 5.75 -7.609375 C 5.226562 -7.609375 4.757812 -7.472656 4.34375 -7.203125 C 3.9375 -6.941406 3.613281 -6.578125 3.375 -6.109375 C 3.144531 -5.648438 3.03125 -5.117188 3.03125 -4.515625 C 3.03125 -3.921875 3.144531 -3.390625 3.375 -2.921875 C 3.613281 -2.453125 3.9375 -2.082031 4.34375 -1.8125 C 4.757812 -1.550781 5.226562 -1.421875 5.75 -1.421875 Z M 5.75 -1.421875 "/></g></g></g><g fill="#000000" fill-opacity="1"><g transform="translate(128.024148, 129.748045)"><g><path d="M 4.6875 0.15625 C 4.207031 0.15625 3.738281 0.101562 3.28125 0 C 2.832031 -0.101562 2.421875 -0.273438 2.046875 -0.515625 C 1.679688 -0.753906 1.378906 -1.0625 1.140625 -1.4375 C 0.910156 -1.820312 0.773438 -2.289062 0.734375 -2.84375 C 0.710938 -2.945312 0.753906 -3 0.859375 -3 L 2.3125 -3 C 2.394531 -3 2.445312 -2.957031 2.46875 -2.875 C 2.550781 -2.289062 2.796875 -1.863281 3.203125 -1.59375 C 3.609375 -1.332031 4.109375 -1.203125 4.703125 -1.203125 C 5.273438 -1.203125 5.722656 -1.316406 6.046875 -1.546875 C 6.378906 -1.773438 6.546875 -2.09375 6.546875 -2.5 C 6.546875 -2.769531 6.460938 -2.992188 6.296875 -3.171875 C 6.128906 -3.347656 5.910156 -3.492188 5.640625 -3.609375 C 5.367188 -3.722656 5.066406 -3.816406 4.734375 -3.890625 C 4.398438 -3.960938 4.070312 -4.039062 3.75 -4.125 C 3.382812 -4.207031 3.035156 -4.304688 2.703125 -4.421875 C 2.378906 -4.546875 2.085938 -4.695312 1.828125 -4.875 C 1.578125 -5.050781 1.378906 -5.273438 1.234375 -5.546875 C 1.085938 -5.816406 1.015625 -6.15625 1.015625 -6.5625 C 1.015625 -7.007812 1.109375 -7.398438 1.296875 -7.734375 C 1.484375 -8.066406 1.738281 -8.34375 2.0625 -8.5625 C 2.382812 -8.78125 2.753906 -8.945312 3.171875 -9.0625 C 3.585938 -9.175781 4.03125 -9.234375 4.5 -9.234375 C 5.15625 -9.234375 5.734375 -9.125 6.234375 -8.90625 C 6.742188 -8.695312 7.160156 -8.382812 7.484375 -7.96875 C 7.804688 -7.550781 8 -7.039062 8.0625 -6.4375 C 8.070312 -6.332031 8.03125 -6.28125 7.9375 -6.28125 L 6.578125 -6.28125 C 6.492188 -6.28125 6.445312 -6.320312 6.4375 -6.40625 C 6.351562 -6.90625 6.128906 -7.273438 5.765625 -7.515625 C 5.398438 -7.753906 4.957031 -7.875 4.4375 -7.875 C 3.9375 -7.875 3.53125 -7.769531 3.21875 -7.5625 C 2.914062 -7.363281 2.765625 -7.082031 2.765625 -6.71875 C 2.765625 -6.46875 2.832031 -6.265625 2.96875 -6.109375 C 3.113281 -5.960938 3.300781 -5.835938 3.53125 -5.734375 C 3.769531 -5.640625 4.035156 -5.554688 4.328125 -5.484375 C 4.628906 -5.421875 4.9375 -5.351562 5.25 -5.28125 C 5.613281 -5.207031 5.972656 -5.109375 6.328125 -4.984375 C 6.691406 -4.867188 7.019531 -4.71875 7.3125 -4.53125 C 7.613281 -4.34375 7.851562 -4.09375 8.03125 -3.78125 C 8.207031 -3.46875 8.296875 -3.082031 8.296875 -2.625 C 8.296875 -2.070312 8.15625 -1.582031 7.875 -1.15625 C 7.59375 -0.738281 7.179688 -0.414062 6.640625 -0.1875 C 6.097656 0.0390625 5.445312 0.15625 4.6875 0.15625 Z M 4.6875 0.15625 "/></g></g></g><g fill="#000000" fill-opacity="1"><g transform="translate(137.099455, 129.748045)"><g><path d="M 9.125 -9.078125 C 9.175781 -9.078125 9.210938 -9.0625 9.234375 -9.03125 C 9.265625 -9.007812 9.269531 -8.972656 9.25 -8.921875 L 4.25 3.796875 C 4.25 3.835938 4.226562 3.863281 4.1875 3.875 C 4.15625 3.894531 4.125 3.90625 4.09375 3.90625 L 2.53125 3.90625 C 2.488281 3.90625 2.453125 3.890625 2.421875 3.859375 C 2.390625 3.828125 2.390625 3.789062 2.421875 3.75 L 3.953125 -0.15625 L 0.296875 -8.90625 C 0.273438 -8.957031 0.269531 -9 0.28125 -9.03125 C 0.300781 -9.0625 0.335938 -9.078125 0.390625 -9.078125 L 2.03125 -9.078125 C 2.101562 -9.078125 2.15625 -9.046875 2.1875 -8.984375 L 4.859375 -2.203125 L 7.34375 -8.984375 C 7.351562 -9.015625 7.375 -9.035156 7.40625 -9.046875 C 7.445312 -9.066406 7.484375 -9.078125 7.515625 -9.078125 Z M 9.125 -9.078125 "/></g></g></g><g fill="#000000" fill-opacity="1"><g transform="translate(146.656225, 129.748045)"><g><path d="M 5.265625 0.15625 C 4.597656 0.15625 3.984375 0.0390625 3.421875 -0.1875 C 2.867188 -0.414062 2.390625 -0.738281 1.984375 -1.15625 C 1.585938 -1.570312 1.28125 -2.066406 1.0625 -2.640625 C 0.84375 -3.222656 0.734375 -3.863281 0.734375 -4.5625 C 0.734375 -5.25 0.84375 -5.878906 1.0625 -6.453125 C 1.28125 -7.023438 1.585938 -7.519531 1.984375 -7.9375 C 2.390625 -8.351562 2.867188 -8.671875 3.421875 -8.890625 C 3.984375 -9.117188 4.597656 -9.234375 5.265625 -9.234375 C 6.046875 -9.234375 6.738281 -9.09375 7.34375 -8.8125 C 7.957031 -8.53125 8.460938 -8.132812 8.859375 -7.625 C 9.253906 -7.113281 9.523438 -6.507812 9.671875 -5.8125 C 9.691406 -5.71875 9.648438 -5.671875 9.546875 -5.671875 L 7.953125 -5.671875 C 7.878906 -5.671875 7.828125 -5.707031 7.796875 -5.78125 C 7.640625 -6.363281 7.335938 -6.832031 6.890625 -7.1875 C 6.453125 -7.539062 5.910156 -7.71875 5.265625 -7.71875 C 4.734375 -7.71875 4.265625 -7.582031 3.859375 -7.3125 C 3.453125 -7.050781 3.132812 -6.679688 2.90625 -6.203125 C 2.675781 -5.734375 2.5625 -5.1875 2.5625 -4.5625 C 2.5625 -3.925781 2.675781 -3.367188 2.90625 -2.890625 C 3.132812 -2.410156 3.453125 -2.035156 3.859375 -1.765625 C 4.265625 -1.492188 4.734375 -1.359375 5.265625 -1.359375 C 5.921875 -1.359375 6.46875 -1.535156 6.90625 -1.890625 C 7.34375 -2.253906 7.640625 -2.734375 7.796875 -3.328125 C 7.835938 -3.410156 7.894531 -3.453125 7.96875 -3.453125 L 9.546875 -3.453125 C 9.648438 -3.453125 9.691406 -3.40625 9.671875 -3.3125 C 9.535156 -2.613281 9.265625 -2.003906 8.859375 -1.484375 C 8.460938 -0.960938 7.957031 -0.554688 7.34375 -0.265625 C 6.738281 0.015625 6.046875 0.15625 5.265625 0.15625 Z M 5.265625 0.15625 "/></g></g></g><g fill="#000000" fill-opacity="1"><g transform="translate(157.01242, 129.748045)"><g><path d="M 1.625 0 C 1.53125 0 1.484375 -0.046875 1.484375 -0.140625 L 1.484375 -12.703125 C 1.484375 -12.796875 1.53125 -12.84375 1.625 -12.84375 L 3.09375 -12.84375 C 3.1875 -12.84375 3.234375 -12.796875 3.234375 -12.703125 L 3.234375 -7.796875 C 3.554688 -8.304688 3.945312 -8.671875 4.40625 -8.890625 C 4.863281 -9.117188 5.351562 -9.234375 5.875 -9.234375 C 6.40625 -9.234375 6.851562 -9.160156 7.21875 -9.015625 C 7.59375 -8.867188 7.894531 -8.671875 8.125 -8.421875 C 8.351562 -8.171875 8.523438 -7.894531 8.640625 -7.59375 C 8.765625 -7.300781 8.851562 -7.003906 8.90625 -6.703125 C 8.957031 -6.398438 8.984375 -6.125 8.984375 -5.875 L 8.984375 -0.140625 C 8.984375 -0.046875 8.9375 0 8.84375 0 L 7.375 0 C 7.28125 0 7.234375 -0.046875 7.234375 -0.140625 L 7.234375 -5.453125 C 7.234375 -5.835938 7.175781 -6.191406 7.0625 -6.515625 C 6.945312 -6.847656 6.753906 -7.113281 6.484375 -7.3125 C 6.210938 -7.507812 5.84375 -7.609375 5.375 -7.609375 C 4.976562 -7.609375 4.644531 -7.53125 4.375 -7.375 C 4.101562 -7.21875 3.882812 -7.003906 3.71875 -6.734375 C 3.550781 -6.472656 3.425781 -6.179688 3.34375 -5.859375 C 3.269531 -5.546875 3.234375 -5.238281 3.234375 -4.9375 L 3.234375 -0.140625 C 3.234375 -0.046875 3.1875 0 3.09375 0 Z M 1.625 0 "/></g></g></g><g fill="#000000" fill-opacity="1"><g transform="translate(167.277772, 129.748045)"><g><path d="M 5.265625 0.15625 C 4.597656 0.15625 3.984375 0.0390625 3.421875 -0.1875 C 2.867188 -0.414062 2.390625 -0.738281 1.984375 -1.15625 C 1.585938 -1.570312 1.28125 -2.066406 1.0625 -2.640625 C 0.84375 -3.222656 0.734375 -3.863281 0.734375 -4.5625 C 0.734375 -5.25 0.84375 -5.878906 1.0625 -6.453125 C 1.28125 -7.023438 1.585938 -7.519531 1.984375 -7.9375 C 2.390625 -8.351562 2.867188 -8.671875 3.421875 -8.890625 C 3.984375 -9.117188 4.597656 -9.234375 5.265625 -9.234375 C 5.929688 -9.234375 6.539062 -9.117188 7.09375 -8.890625 C 7.65625 -8.671875 8.132812 -8.351562 8.53125 -7.9375 C 8.9375 -7.519531 9.25 -7.023438 9.46875 -6.453125 C 9.6875 -5.878906 9.796875 -5.25 9.796875 -4.5625 C 9.796875 -3.863281 9.6875 -3.226562 9.46875 -2.65625 C 9.25 -2.082031 8.9375 -1.582031 8.53125 -1.15625 C 8.132812 -0.738281 7.65625 -0.414062 7.09375 -0.1875 C 6.539062 0.0390625 5.929688 0.15625 5.265625 0.15625 Z M 5.265625 -1.359375 C 5.796875 -1.359375 6.265625 -1.492188 6.671875 -1.765625 C 7.085938 -2.035156 7.410156 -2.410156 7.640625 -2.890625 C 7.867188 -3.378906 7.984375 -3.9375 7.984375 -4.5625 C 7.984375 -5.1875 7.867188 -5.734375 7.640625 -6.203125 C 7.410156 -6.679688 7.085938 -7.050781 6.671875 -7.3125 C 6.265625 -7.582031 5.796875 -7.71875 5.265625 -7.71875 C 4.734375 -7.71875 4.265625 -7.582031 3.859375 -7.3125 C 3.453125 -7.050781 3.132812 -6.679688 2.90625 -6.203125 C 2.675781 -5.734375 2.5625 -5.1875 2.5625 -4.5625 C 2.5625 -3.925781 2.675781 -3.367188 2.90625 -2.890625 C 3.132812 -2.410156 3.453125 -2.035156 3.859375 -1.765625 C 4.265625 -1.492188 4.734375 -1.359375 5.265625 -1.359375 Z M 5.265625 -1.359375 "/></g></g></g><g fill="#000000" fill-opacity="1"><g transform="translate(177.824749, 129.748045)"><g><path d="M 3.65625 0 C 2.851562 0 2.269531 -0.175781 1.90625 -0.53125 C 1.550781 -0.894531 1.375 -1.476562 1.375 -2.28125 L 1.375 -12.703125 C 1.375 -12.796875 1.421875 -12.84375 1.515625 -12.84375 L 3 -12.84375 C 3.09375 -12.84375 3.140625 -12.796875 3.140625 -12.703125 L 3.140625 -2.578125 C 3.140625 -2.285156 3.164062 -2.054688 3.21875 -1.890625 C 3.269531 -1.722656 3.363281 -1.601562 3.5 -1.53125 C 3.632812 -1.46875 3.828125 -1.4375 4.078125 -1.4375 L 4.65625 -1.4375 C 4.75 -1.4375 4.796875 -1.390625 4.796875 -1.296875 L 4.796875 -0.140625 C 4.796875 -0.046875 4.75 0 4.65625 0 Z M 3.65625 0 "/></g></g></g><g fill="#000000" fill-opacity="1"><g transform="translate(182.993771, 129.748045)"><g><path d="M 5.265625 0.15625 C 4.597656 0.15625 3.984375 0.0390625 3.421875 -0.1875 C 2.867188 -0.414062 2.390625 -0.738281 1.984375 -1.15625 C 1.585938 -1.570312 1.28125 -2.066406 1.0625 -2.640625 C 0.84375 -3.222656 0.734375 -3.863281 0.734375 -4.5625 C 0.734375 -5.25 0.84375 -5.878906 1.0625 -6.453125 C 1.28125 -7.023438 1.585938 -7.519531 1.984375 -7.9375 C 2.390625 -8.351562 2.867188 -8.671875 3.421875 -8.890625 C 3.984375 -9.117188 4.597656 -9.234375 5.265625 -9.234375 C 5.929688 -9.234375 6.539062 -9.117188 7.09375 -8.890625 C 7.65625 -8.671875 8.132812 -8.351562 8.53125 -7.9375 C 8.9375 -7.519531 9.25 -7.023438 9.46875 -6.453125 C 9.6875 -5.878906 9.796875 -5.25 9.796875 -4.5625 C 9.796875 -3.863281 9.6875 -3.226562 9.46875 -2.65625 C 9.25 -2.082031 8.9375 -1.582031 8.53125 -1.15625 C 8.132812 -0.738281 7.65625 -0.414062 7.09375 -0.1875 C 6.539062 0.0390625 5.929688 0.15625 5.265625 0.15625 Z M 5.265625 -1.359375 C 5.796875 -1.359375 6.265625 -1.492188 6.671875 -1.765625 C 7.085938 -2.035156 7.410156 -2.410156 7.640625 -2.890625 C 7.867188 -3.378906 7.984375 -3.9375 7.984375 -4.5625 C 7.984375 -5.1875 7.867188 -5.734375 7.640625 -6.203125 C 7.410156 -6.679688 7.085938 -7.050781 6.671875 -7.3125 C 6.265625 -7.582031 5.796875 -7.71875 5.265625 -7.71875 C 4.734375 -7.71875 4.265625 -7.582031 3.859375 -7.3125 C 3.453125 -7.050781 3.132812 -6.679688 2.90625 -6.203125 C 2.675781 -5.734375 2.5625 -5.1875 2.5625 -4.5625 C 2.5625 -3.925781 2.675781 -3.367188 2.90625 -2.890625 C 3.132812 -2.410156 3.453125 -2.035156 3.859375 -1.765625 C 4.265625 -1.492188 4.734375 -1.359375 5.265625 -1.359375 Z M 5.265625 -1.359375 "/></g></g></g><g fill="#000000" fill-opacity="1"><g transform="translate(193.540748, 129.748045)"><g><path d="M 9.234375 -9.078125 C 9.328125 -9.078125 9.375 -9.03125 9.375 -8.9375 L 9.375 0.1875 C 9.375 1.09375 9.203125 1.828125 8.859375 2.390625 C 8.515625 2.953125 8.035156 3.359375 7.421875 3.609375 C 6.804688 3.867188 6.085938 4 5.265625 4 C 4.523438 4 3.863281 3.894531 3.28125 3.6875 C 2.695312 3.476562 2.222656 3.148438 1.859375 2.703125 C 1.492188 2.253906 1.273438 1.660156 1.203125 0.921875 C 1.191406 0.816406 1.234375 0.765625 1.328125 0.765625 L 2.8125 0.765625 C 2.894531 0.765625 2.941406 0.8125 2.953125 0.90625 C 3.015625 1.46875 3.226562 1.90625 3.59375 2.21875 C 3.96875 2.53125 4.523438 2.6875 5.265625 2.6875 C 5.828125 2.6875 6.273438 2.597656 6.609375 2.421875 C 6.941406 2.242188 7.179688 1.992188 7.328125 1.671875 C 7.484375 1.347656 7.5625 0.96875 7.5625 0.53125 L 7.5625 -1.546875 C 7.238281 -0.984375 6.804688 -0.554688 6.265625 -0.265625 C 5.734375 0.015625 5.175781 0.15625 4.59375 0.15625 C 4.039062 0.15625 3.535156 0.0507812 3.078125 -0.15625 C 2.628906 -0.375 2.234375 -0.6875 1.890625 -1.09375 C 1.546875 -1.507812 1.28125 -2.003906 1.09375 -2.578125 C 0.90625 -3.148438 0.8125 -3.789062 0.8125 -4.5 C 0.8125 -5.195312 0.898438 -5.832031 1.078125 -6.40625 C 1.265625 -6.988281 1.519531 -7.488281 1.84375 -7.90625 C 2.175781 -8.332031 2.570312 -8.660156 3.03125 -8.890625 C 3.488281 -9.117188 3.992188 -9.234375 4.546875 -9.234375 C 4.960938 -9.234375 5.367188 -9.160156 5.765625 -9.015625 C 6.171875 -8.878906 6.539062 -8.664062 6.875 -8.375 C 7.207031 -8.09375 7.472656 -7.742188 7.671875 -7.328125 L 7.796875 -8.953125 C 7.804688 -9.035156 7.859375 -9.078125 7.953125 -9.078125 Z M 5.109375 -1.421875 C 5.640625 -1.421875 6.109375 -1.550781 6.515625 -1.8125 C 6.921875 -2.082031 7.238281 -2.453125 7.46875 -2.921875 C 7.707031 -3.398438 7.828125 -3.9375 7.828125 -4.53125 C 7.828125 -5.125 7.707031 -5.648438 7.46875 -6.109375 C 7.238281 -6.578125 6.921875 -6.941406 6.515625 -7.203125 C 6.109375 -7.472656 5.640625 -7.609375 5.109375 -7.609375 C 4.585938 -7.609375 4.132812 -7.472656 3.75 -7.203125 C 3.375 -6.941406 3.082031 -6.578125 2.875 -6.109375 C 2.675781 -5.648438 2.578125 -5.125 2.578125 -4.53125 C 2.578125 -3.9375 2.675781 -3.40625 2.875 -2.9375 C 3.082031 -2.46875 3.375 -2.097656 3.75 -1.828125 C 4.132812 -1.554688 4.585938 -1.421875 5.109375 -1.421875 Z M 5.109375 -1.421875 "/></g></g></g><g fill="#000000" fill-opacity="1"><g transform="translate(204.396594, 129.748045)"><g><path d="M 2.359375 -10.625 C 2.140625 -10.625 1.9375 -10.675781 1.75 -10.78125 C 1.5625 -10.894531 1.410156 -11.039062 1.296875 -11.21875 C 1.191406 -11.40625 1.140625 -11.609375 1.140625 -11.828125 C 1.140625 -12.046875 1.191406 -12.242188 1.296875 -12.421875 C 1.410156 -12.609375 1.5625 -12.753906 1.75 -12.859375 C 1.9375 -12.972656 2.140625 -13.03125 2.359375 -13.03125 C 2.578125 -13.03125 2.773438 -12.972656 2.953125 -12.859375 C 3.128906 -12.753906 3.269531 -12.609375 3.375 -12.421875 C 3.488281 -12.242188 3.546875 -12.046875 3.546875 -11.828125 C 3.546875 -11.609375 3.488281 -11.40625 3.375 -11.21875 C 3.269531 -11.039062 3.128906 -10.894531 2.953125 -10.78125 C 2.773438 -10.675781 2.578125 -10.625 2.359375 -10.625 Z M 1.625 0 C 1.53125 0 1.484375 -0.046875 1.484375 -0.140625 L 1.484375 -8.9375 C 1.484375 -9.03125 1.53125 -9.078125 1.625 -9.078125 L 3.09375 -9.078125 C 3.1875 -9.078125 3.234375 -9.03125 3.234375 -8.9375 L 3.234375 -0.140625 C 3.234375 -0.046875 3.1875 0 3.09375 0 Z M 1.625 0 "/></g></g></g><g fill="#000000" fill-opacity="1"><g transform="translate(209.111397, 129.748045)"><g><path d="M 4.6875 0.15625 C 4.207031 0.15625 3.738281 0.101562 3.28125 0 C 2.832031 -0.101562 2.421875 -0.273438 2.046875 -0.515625 C 1.679688 -0.753906 1.378906 -1.0625 1.140625 -1.4375 C 0.910156 -1.820312 0.773438 -2.289062 0.734375 -2.84375 C 0.710938 -2.945312 0.753906 -3 0.859375 -3 L 2.3125 -3 C 2.394531 -3 2.445312 -2.957031 2.46875 -2.875 C 2.550781 -2.289062 2.796875 -1.863281 3.203125 -1.59375 C 3.609375 -1.332031 4.109375 -1.203125 4.703125 -1.203125 C 5.273438 -1.203125 5.722656 -1.316406 6.046875 -1.546875 C 6.378906 -1.773438 6.546875 -2.09375 6.546875 -2.5 C 6.546875 -2.769531 6.460938 -2.992188 6.296875 -3.171875 C 6.128906 -3.347656 5.910156 -3.492188 5.640625 -3.609375 C 5.367188 -3.722656 5.066406 -3.816406 4.734375 -3.890625 C 4.398438 -3.960938 4.070312 -4.039062 3.75 -4.125 C 3.382812 -4.207031 3.035156 -4.304688 2.703125 -4.421875 C 2.378906 -4.546875 2.085938 -4.695312 1.828125 -4.875 C 1.578125 -5.050781 1.378906 -5.273438 1.234375 -5.546875 C 1.085938 -5.816406 1.015625 -6.15625 1.015625 -6.5625 C 1.015625 -7.007812 1.109375 -7.398438 1.296875 -7.734375 C 1.484375 -8.066406 1.738281 -8.34375 2.0625 -8.5625 C 2.382812 -8.78125 2.753906 -8.945312 3.171875 -9.0625 C 3.585938 -9.175781 4.03125 -9.234375 4.5 -9.234375 C 5.15625 -9.234375 5.734375 -9.125 6.234375 -8.90625 C 6.742188 -8.695312 7.160156 -8.382812 7.484375 -7.96875 C 7.804688 -7.550781 8 -7.039062 8.0625 -6.4375 C 8.070312 -6.332031 8.03125 -6.28125 7.9375 -6.28125 L 6.578125 -6.28125 C 6.492188 -6.28125 6.445312 -6.320312 6.4375 -6.40625 C 6.351562 -6.90625 6.128906 -7.273438 5.765625 -7.515625 C 5.398438 -7.753906 4.957031 -7.875 4.4375 -7.875 C 3.9375 -7.875 3.53125 -7.769531 3.21875 -7.5625 C 2.914062 -7.363281 2.765625 -7.082031 2.765625 -6.71875 C 2.765625 -6.46875 2.832031 -6.265625 2.96875 -6.109375 C 3.113281 -5.960938 3.300781 -5.835938 3.53125 -5.734375 C 3.769531 -5.640625 4.035156 -5.554688 4.328125 -5.484375 C 4.628906 -5.421875 4.9375 -5.351562 5.25 -5.28125 C 5.613281 -5.207031 5.972656 -5.109375 6.328125 -4.984375 C 6.691406 -4.867188 7.019531 -4.71875 7.3125 -4.53125 C 7.613281 -4.34375 7.851562 -4.09375 8.03125 -3.78125 C 8.207031 -3.46875 8.296875 -3.082031 8.296875 -2.625 C 8.296875 -2.070312 8.15625 -1.582031 7.875 -1.15625 C 7.59375 -0.738281 7.179688 -0.414062 6.640625 -0.1875 C 6.097656 0.0390625 5.445312 0.15625 4.6875 0.15625 Z M 4.6875 0.15625 "/></g></g></g><g fill="#000000" fill-opacity="1"><g transform="translate(218.186704, 129.748045)"><g><path d="M 4.125 0 C 3.320312 0 2.742188 -0.175781 2.390625 -0.53125 C 2.035156 -0.894531 1.859375 -1.476562 1.859375 -2.28125 L 1.859375 -7.59375 L 0.484375 -7.59375 C 0.398438 -7.59375 0.359375 -7.640625 0.359375 -7.734375 L 0.359375 -8.9375 C 0.359375 -9.03125 0.398438 -9.078125 0.484375 -9.078125 L 1.859375 -9.078125 L 1.859375 -11.671875 C 1.859375 -11.765625 1.898438 -11.8125 1.984375 -11.8125 L 3.46875 -11.8125 C 3.550781 -11.8125 3.59375 -11.765625 3.59375 -11.671875 L 3.59375 -9.078125 L 5.375 -9.078125 C 5.46875 -9.078125 5.515625 -9.03125 5.515625 -8.9375 L 5.515625 -7.734375 C 5.515625 -7.640625 5.46875 -7.59375 5.375 -7.59375 L 3.59375 -7.59375 L 3.59375 -2.578125 C 3.59375 -2.285156 3.617188 -2.054688 3.671875 -1.890625 C 3.734375 -1.722656 3.832031 -1.601562 3.96875 -1.53125 C 4.101562 -1.46875 4.296875 -1.4375 4.546875 -1.4375 L 5.25 -1.4375 C 5.332031 -1.4375 5.375 -1.390625 5.375 -1.296875 L 5.375 -0.140625 C 5.375 -0.046875 5.332031 0 5.25 0 Z M 4.125 0 "/></g></g></g><g fill="#000000" fill-opacity="1"><g transform="translate(224.41859, 129.748045)"><g><path d="M 2.875 0.1875 C 2.664062 0.1875 2.472656 0.132812 2.296875 0.03125 C 2.117188 -0.0703125 1.972656 -0.210938 1.859375 -0.390625 C 1.753906 -0.566406 1.703125 -0.765625 1.703125 -0.984375 C 1.703125 -1.191406 1.753906 -1.378906 1.859375 -1.546875 C 1.972656 -1.722656 2.117188 -1.863281 2.296875 -1.96875 C 2.472656 -2.070312 2.664062 -2.125 2.875 -2.125 C 3.09375 -2.125 3.285156 -2.070312 3.453125 -1.96875 C 3.628906 -1.863281 3.769531 -1.722656 3.875 -1.546875 C 3.976562 -1.378906 4.03125 -1.191406 4.03125 -0.984375 C 4.03125 -0.773438 3.976562 -0.582031 3.875 -0.40625 C 3.769531 -0.226562 3.628906 -0.0859375 3.453125 0.015625 C 3.285156 0.128906 3.09375 0.1875 2.875 0.1875 Z M 2.875 0.1875 "/></g></g></g><g fill="#000000" fill-opacity="1"><g transform="translate(230.150844, 129.748045)"><g><path d="M 6.046875 -9.078125 C 6.140625 -9.078125 6.1875 -9.03125 6.1875 -8.9375 L 6.1875 -7.609375 C 6.1875 -7.523438 6.140625 -7.484375 6.046875 -7.484375 L 5.640625 -7.484375 C 4.847656 -7.484375 4.25 -7.234375 3.84375 -6.734375 C 3.4375 -6.234375 3.234375 -5.554688 3.234375 -4.703125 L 3.234375 -0.140625 C 3.234375 -0.046875 3.1875 0 3.09375 0 L 1.625 0 C 1.53125 0 1.484375 -0.046875 1.484375 -0.140625 L 1.484375 -8.9375 C 1.484375 -9.03125 1.53125 -9.078125 1.625 -9.078125 L 2.875 -9.078125 C 2.96875 -9.078125 3.019531 -9.035156 3.03125 -8.953125 L 3.203125 -7.4375 C 3.359375 -7.875 3.582031 -8.207031 3.875 -8.4375 C 4.164062 -8.675781 4.484375 -8.84375 4.828125 -8.9375 C 5.179688 -9.03125 5.53125 -9.078125 5.875 -9.078125 Z M 6.046875 -9.078125 "/></g></g></g><g fill="#000000" fill-opacity="1"><g transform="translate(236.637093, 129.748045)"><g><path d="M 5.265625 0.15625 C 4.597656 0.15625 3.984375 0.0390625 3.421875 -0.1875 C 2.867188 -0.414062 2.390625 -0.738281 1.984375 -1.15625 C 1.585938 -1.570312 1.28125 -2.066406 1.0625 -2.640625 C 0.84375 -3.222656 0.734375 -3.863281 0.734375 -4.5625 C 0.734375 -5.25 0.84375 -5.878906 1.0625 -6.453125 C 1.28125 -7.023438 1.585938 -7.519531 1.984375 -7.9375 C 2.390625 -8.351562 2.867188 -8.671875 3.421875 -8.890625 C 3.984375 -9.117188 4.597656 -9.234375 5.265625 -9.234375 C 5.929688 -9.234375 6.539062 -9.117188 7.09375 -8.890625 C 7.65625 -8.671875 8.132812 -8.351562 8.53125 -7.9375 C 8.9375 -7.519531 9.25 -7.023438 9.46875 -6.453125 C 9.6875 -5.878906 9.796875 -5.25 9.796875 -4.5625 C 9.796875 -3.863281 9.6875 -3.226562 9.46875 -2.65625 C 9.25 -2.082031 8.9375 -1.582031 8.53125 -1.15625 C 8.132812 -0.738281 7.65625 -0.414062 7.09375 -0.1875 C 6.539062 0.0390625 5.929688 0.15625 5.265625 0.15625 Z M 5.265625 -1.359375 C 5.796875 -1.359375 6.265625 -1.492188 6.671875 -1.765625 C 7.085938 -2.035156 7.410156 -2.410156 7.640625 -2.890625 C 7.867188 -3.378906 7.984375 -3.9375 7.984375 -4.5625 C 7.984375 -5.1875 7.867188 -5.734375 7.640625 -6.203125 C 7.410156 -6.679688 7.085938 -7.050781 6.671875 -7.3125 C 6.265625 -7.582031 5.796875 -7.71875 5.265625 -7.71875 C 4.734375 -7.71875 4.265625 -7.582031 3.859375 -7.3125 C 3.453125 -7.050781 3.132812 -6.679688 2.90625 -6.203125 C 2.675781 -5.734375 2.5625 -5.1875 2.5625 -4.5625 C 2.5625 -3.925781 2.675781 -3.367188 2.90625 -2.890625 C 3.132812 -2.410156 3.453125 -2.035156 3.859375 -1.765625 C 4.265625 -1.492188 4.734375 -1.359375 5.265625 -1.359375 Z M 5.265625 -1.359375 "/></g></g></g></svg>